<?xml version="1.0" encoding="utf-8"?>
<!-- Generator: Adobe Illustrator 22.0.1, SVG Export Plug-In . SVG Version: 6.00 Build 0)  -->
<svg version="1.1" xmlns="http://www.w3.org/2000/svg" xmlns:xlink="http://www.w3.org/1999/xlink" x="0px" y="0px"
	 viewBox="0 0 150.8 60" style="enable-background:new 0 0 150.8 60;" xml:space="preserve">
<style type="text/css">
	.st0{display:none;}
	.st1{display:inline;fill:#606060;}
	.st2{display:inline;}
	.st3{fill:#ECEDEF;}
	.st4{fill:#FFFFFF;}
	.st5{fill:#606060;}
</style>
<g id="Capa_2_1_" class="st0">
	<path class="st1" d="M133,48.2c0.1-6-4.6-9.4-8-9l-0.1-12.9c0-4.1-0.4-9.1-2.9-12.2c-3-3.7-8.2-5.8-12.7-5.8c-2.6,0-5.1,0.7-7.3,2
		C99.7,8.8,97.1,8,94.4,8c-5.1,0-10,2.8-12.9,7.4c-0.3,0.5-0.6,1.1-0.9,1.7c-0.6-0.9-1.2-1.8-1.9-2.7c-3.4-4-8.1-6.3-13.1-6.3
		c-5.7,0-11.1,3.1-14.5,8.2c-2.2,3.4-3.3,8.3-3.3,12.4c0,0.6,0,1.3,0.1,1.9c-1-0.4-1.1-2-2.2-2l2.5,2l5.9-13.2
		C55.7,15,54.7,8.8,53.5,6h-0.3h0.3c-1.4-2.9-5.5-4.7-8.6-4.7H29.6c-3.5,0-5.6,2.4-6.7,5.9c-0.3,0.9-0.2,4-0.2,4.9
		c0,4.8,1.7,9.3,6.2,9.3l-4.2,6l-3.5,5c-1.6,2.6-1.5,7.1-0.4,10.4c1.1,3.1,3.3,5.7,6.3,5.7h19.7c3.4,0,5.1-2.3,6.3-5.5
		c3.3,4,7.3,5.5,12.5,5.5c1.8,0,3.5-0.6,4.8-1.7c1.3,1,3,1.6,4.8,1.6c2.3,0,4.4-1,5.9-2.7c1.5,1.6,3.6,2.7,5.9,2.7
		c3.3,0,6.2-2.1,7.4-5.1c1.3,3,4.1,5.1,7.4,5.1c2.8,0,5.3-1.5,6.7-3.8v0c0,1.6,0.6,6.6,4.2,10.8c2,2.4,5.4,4.4,11.7,4.4
		c4.5,0,8.5-2.9,8.5-7.7C133,50.8,133,49.5,133,48.2z"/>
	<g class="st2">
		<path class="st3" d="M111.1,40.9v-0.5C111.1,40.5,111.1,40.7,111.1,40.9z"/>
		<path class="st3" d="M40.1,29.7h2.8l8.6-12.5c1.4-1.6,1.7-5.9,1-7.7c-0.2,0.5-0.7,3.3-1,3.7L40.1,29.7z"/>
		<path class="st3" d="M46.4,41.7H28.7c-2.2,0-4.3-1.2-5.3-3.2c-0.1-0.3-0.6-3-0.7-3.3c-0.3,1.5-0.1,5.8,0.7,7.3
			c1,2,3.1,3.2,5.3,3.2h17.7c3.3,0,6-2.7,6-6c0-0.7,0.2-3.5,0-4.1C51.7,38,49,41.7,46.4,41.7z"/>
		<path class="st3" d="M31.2,15.7c-2.6,0-5.1-4.7-5.9-7c-0.2,0.6-0.1,4.3-0.1,5c0,3.3,2.7,6,6,6h1.2l2.8-4.1H31.2z"/>
		<path class="st3" d="M66,26.1c1.8,0,3.3,1.4,3.5,3.3v-4.1C69.3,23.5,67.8,22,66,22c-2,0-3.6,1.8-3.6,3.9c0,0.7,0.2,1.4,0.5,2
			C63.6,26.9,64.7,26.1,66,26.1z"/>
		<path class="st4" d="M50.4,31.1c-1.1-0.9-2.4-1.5-4-1.5h-3.5h-2.8l11.3-16.6c0.3-0.4,0.5-0.9,0.7-1.4c0.6-1.6,0.5-3.3-0.3-4.8
			c-1-2-3.1-3.2-5.3-3.2H31.2c-3.3,0-6,2.7-6,6c0,0.7,0.1,1.4,0.4,2c0.8,2.3,3.1,4,5.7,4h3.9l-2.8,4.1l-8.6,12.5
			c-1.1,1.6-1.3,3.6-0.7,5.4c0.1,0.3,0.2,0.5,0.3,0.8c1,2,3.1,3.2,5.3,3.2h17.7c2.6,0,4.8-1.7,5.7-4c0-0.1,0-0.1,0.1-0.2
			c0.2-0.6,0.3-1.2,0.3-1.8C52.5,33.9,51.7,32.3,50.4,31.1z M46.2,38.9H28.5c-1.2,0-2.3-0.6-2.8-1.7c-0.5-1-0.5-2.3,0.2-3.3
			l14.4-21.1h-9.4c-1.7,0-3.2-1.4-3.2-3.2c0-0.4,0.1-0.7,0.2-1c0.4-1.2,1.6-2.1,3-2.1h15.4c1.2,0,2.3,0.6,2.8,1.7c0,0,0,0,0,0.1
			c0.5,1,0.4,2.2-0.2,3.2L34.5,32.5H41h5.2c1.2,0,2.3,0.7,2.8,1.8c0.2,0.4,0.3,0.9,0.3,1.4C49.3,37.4,47.9,38.9,46.2,38.9z"/>
		<path class="st3" d="M124.9,53.2c-4.4,0-8-1.4-10.5-4.1c-2.8-3-3.3-6.6-3.3-8.2v3.5c0,1.3,0.1,5.4,3.3,8.7
			c2.5,2.7,6.1,4.2,10.5,4.1c3.8-0.1,6-3.5,6-6c0-0.7,0.2-3.7,0-4.4C130,49.2,127.5,53.2,124.9,53.2z"/>
		<path class="st3" d="M102.2,42c-3.3,0-6-2.7-6-6V40c0,3.3,2.7,6,6,6s6-2.7,6-6v-4.1C108.2,39.2,105.5,42,102.2,42z"/>
		<path class="st3" d="M96.1,23.5c0-0.9-0.6-1.6-1.4-1.6c-0.8,0-1.4,0.7-1.4,1.6v4.1c0-0.9,0.6-1.6,1.4-1.6c0.8,0,1.4,0.7,1.4,1.6
			c0,0.2,0,0.5,0,0.7v-4.1C96.1,24,96.1,23.8,96.1,23.5z"/>
		<path class="st3" d="M123.1,40.7v-0.1C123.1,40.6,123.1,40.6,123.1,40.7C123.1,40.7,123.1,40.7,123.1,40.7z"/>
		<path class="st3" d="M109.7,22.1c-0.8,0-1.4,0.7-1.4,1.6c0,0.2,0,0.5,0,0.7v4.1c0-0.2,0-0.5,0-0.7c0-0.9,0.6-1.6,1.4-1.6
			c0.8,0,1.4,0.7,1.4,1.6v-4.1C111.1,22.8,110.4,22.1,109.7,22.1z"/>
		<path class="st3" d="M87.3,42c-2.6,0-4.9-1.7-5.7-4c-0.1-0.2-0.1-0.4-0.2-0.6c0,0.2-0.1,0.4-0.2,0.6c-0.8,2.4-3.1,4-5.7,4
			c-1.9,0-3.7-0.9-4.8-2.3C69.7,41.1,68,42,66,42c-8,0-14.7-8.1-15.7-16c-0.1,0.7,0,3.4,0,4.1c0,0.4,0,0.7,0,1.1
			c1.3,1.1,2.1,2.7,2.1,4.5c0,0.6-0.1,1.3-0.3,1.8C54.8,42.6,60,46,66,46c2,0,3.7-0.9,4.8-2.4c1.1,1.4,2.8,2.3,4.8,2.3
			c2.8,0,5.2-2,5.9-4.6c0.6,2.6,3,4.6,5.9,4.6c3.3,0,6-2.7,6-6v-4.1C93.3,39.2,90.6,42,87.3,42z"/>
		<path class="st4" d="M124.9,41.1c-1,0-1.5-0.2-1.7-0.3c0-0.1,0-0.1,0-0.2c0,0,0,0,0,0c0,0,0-0.1,0-0.1c0,0,0,0,0,0l0-16.8
			c0-7.5-6-13.7-13.5-13.7c-2.6,0-5.2,0.8-7.3,2.2c-2.2-1.6-4.8-2.4-7.6-2.4c-7.1,0-13,5.6-13.4,12.7C79.8,15.4,73.5,10,66,10
			c-8.6,0-15.7,7.2-15.7,16c0,0.7,0,1.4,0.1,2c1,7.9,7.6,14,15.5,14c2,0,3.7-0.9,4.8-2.4c1.1,1.4,2.8,2.3,4.8,2.3
			c2.6,0,4.9-1.7,5.7-4c0.1-0.2,0.1-0.4,0.2-0.6c0,0.2,0.1,0.4,0.2,0.6c0.8,2.4,3.1,4,5.7,4c3.3,0,6-2.7,6-6v-8.3v-4.1
			c0-0.9,0.6-1.6,1.4-1.6c0.8,0,1.4,0.7,1.4,1.6c0,0.2,0,0.5,0,0.7v4.1v7.6c0,3.3,2.7,6,6,6s6-2.7,6-6v-7.4v-4.1c0-0.2,0-0.5,0-0.7
			c0-0.9,0.6-1.6,1.4-1.6c0.8,0,1.4,0.7,1.4,1.6v4.1v12.6v0.5c0,1.6,0.5,5.2,3.3,8.2c2.5,2.7,6.1,4.1,10.5,4.1c2.6,0,4.8-1.7,5.7-4
			c0.2-0.6,0.4-1.3,0.4-2C130.9,43.8,128.2,41.1,124.9,41.1z M69.5,29.4v1.6c-1-0.7-2.2-1.2-3.5-1.2c-1.3,0-2.4-0.8-3.1-1.9
			c-0.3-0.6-0.5-1.3-0.5-2c0-2.2,1.6-3.9,3.6-3.9c1.8,0,3.3,1.4,3.5,3.3V29.4z M78.5,26.5v9.4c0,1.7-1.4,3.2-3.2,3.2
			s-3.2-1.4-3.2-3.2V25.4c0,0,0-0.1,0-0.1c-0.3-3.4-3.1-6.1-6.4-6.1c-3.6,0-6.5,3.1-6.5,6.8c0,2.7,1.5,5,3.7,6.1
			c0.8,0.4,1.8,0.7,2.8,0.7c1.2,0,2.3,0.7,2.8,1.8c0.2,0.4,0.3,0.9,0.3,1.4c0,1.7-1.4,3.2-3.2,3.2c-7,0-12.8-5.9-12.8-13.1
			c0-2.9,0.9-5.6,2.5-7.7c2.3-3.3,6.1-5.4,10.3-5.4c3.7,0,7,1.6,9.3,4.1c2.2,2.4,3.5,5.5,3.5,9C78.5,26.2,78.5,26.3,78.5,26.5z
			 M124.6,50.3c-3.6,0-6.4-1.1-8.4-3.2c-2.5-2.7-2.5-6-2.5-6.7V23.7c0-2.5-1.9-4.5-4.3-4.5s-4.3,2-4.3,4.5c0,0.2,0,0.3,0,0.5v11.7
			c0,1.7-1.4,3.2-3.2,3.2c-1.7,0-3.2-1.4-3.2-3.2V24.1c0-0.2,0-0.3,0-0.5c0-2.5-1.9-4.5-4.3-4.5s-4.3,2-4.3,4.5v12.4
			c0,1.7-1.4,3.2-3.2,3.2c-1.7,0-3.2-1.4-3.2-3.2V23.3c0-0.1,0-0.2,0-0.3c0.1-2.1,0.8-4,1.9-5.6c1.9-2.8,5.1-4.6,8.7-4.6
			c3,0,5.6,1.2,7.6,3.2c1.9-1.9,4.5-3.1,7.4-3.1c3.1,0,5.9,1.4,7.9,3.6c1.7,1.9,2.7,4.4,2.7,7.2v16.8c0,0.1,0,0.1,0,0.2
			c0,0.2,0,1.4,0.8,2.2c0.6,0.6,1.4,0.9,2.3,1c0.5,0.1,1,0.1,1.5,0.1c1.2,0,2.3,0.7,2.8,1.8c0.2,0.4,0.3,0.9,0.3,1.4
			C127.8,48.9,126.4,50.3,124.6,50.3z"/>
	</g>
	<g class="st2">
		<path class="st5" d="M79,26.6v9.3c0,1.7-1.4,3.1-3.2,3.1c-1.8,0-3.2-1.4-3.2-3.1V25.4c0,0,0-0.1,0-0.1c-0.4-3.4-3.2-6-6.5-6
			c-3.6,0-6.6,3-6.6,6.7c0,2.7,1.5,5,3.7,6.1c0.9,0.4,1.8,0.7,2.8,0.7c1.3,0,2.4,0.7,2.9,1.7c0.2,0.4,0.3,0.9,0.3,1.4
			c0,1.7-1.4,3.1-3.2,3.1c-7.2,0-13-5.8-13-13c0-2.9,0.9-5.5,2.5-7.6c2.4-3.2,6.2-5.3,10.5-5.3c3.7,0,7.1,1.6,9.5,4.1
			c2.2,2.3,3.6,5.5,3.6,8.9C79,26.2,79,26.4,79,26.6z"/>
		<path class="st5" d="M124.5,50.1c-3.6,0-6.4-1-8.3-3.1c-2.5-2.6-2.5-5.9-2.5-6.6V23.8c0-2.4-1.9-4.4-4.2-4.4c-2.3,0-4.2,2-4.2,4.4
			c0,0.2,0,0.3,0,0.5v11.5c0,1.7-1.4,3.1-3.1,3.1S99,37.6,99,35.9V24.2c0-0.2,0-0.3,0-0.5c0-2.4-1.9-4.4-4.2-4.4s-4.2,2-4.2,4.4
			v12.2c0,1.7-1.4,3.1-3.1,3.1s-3.1-1.4-3.1-3.1V23.4c0-0.1,0-0.2,0-0.3c0.1-2.1,0.8-4,1.9-5.5c1.9-2.7,5-4.6,8.6-4.6
			c2.9,0,5.6,1.2,7.5,3.2c1.9-1.9,4.5-3,7.3-3c3.1,0,5.9,1.4,7.8,3.5c1.7,1.9,2.7,4.4,2.7,7.1v16.6c0,0.1,0,0.1,0,0.2
			c0,0.2,0,1.4,0.8,2.2c0.6,0.6,1.4,0.9,2.3,1c0.5,0.1,1,0.1,1.5,0.1c1.2,0,2.3,0.7,2.8,1.7c0.2,0.4,0.3,0.9,0.3,1.4
			C127.7,48.7,126.3,50.1,124.5,50.1z"/>
		<path class="st5" d="M45.8,38H28.3c-1.2,0-2.2-0.6-2.8-1.7c-0.5-1-0.5-2.3,0.2-3.2L40,12.3h-9.2c-1.7,0-3.1-1.4-3.1-3.1
			c0-0.4,0.1-0.7,0.2-1c0.4-1.2,1.6-2.1,3-2.1h15.2c1.2,0,2.2,0.6,2.8,1.7c0,0,0,0,0,0.1c0.5,1,0.4,2.2-0.2,3.2L34.2,31.8h6.4h5.2
			c1.2,0,2.3,0.7,2.8,1.7c0.2,0.4,0.3,0.9,0.3,1.4C48.9,36.6,47.5,38,45.8,38z"/>
	</g>
</g>
<g id="Capa_3">
	<g>
		<path class="st3" d="M110.9,41v-0.5C110.9,40.6,110.9,40.8,110.9,41z"/>
		<path class="st3" d="M40,29.7h2.8l8.6-12.5c1.4-1.6,1.7-5.9,1-7.7c-0.2,0.5-0.7,3.3-1,3.7L40,29.7z"/>
		<path class="st3" d="M46.3,41.8H28.5c-2.2,0-4.3-1.2-5.3-3.2c-0.1-0.3-0.6-3-0.7-3.3c-0.3,1.5-0.1,5.8,0.7,7.3
			c1,2,3.1,3.2,5.3,3.2h17.7c3.3,0,6-2.7,6-6c0-0.7,0.2-3.5,0-4.1C51.5,38,48.9,41.8,46.3,41.8z"/>
		<path class="st3" d="M31,15.8c-2.6,0-5.1-4.7-5.9-7c-0.2,0.6-0.1,4.3-0.1,5c0,3.3,2.7,6,6,6h1.2l2.8-4.1H31z"/>
		<path class="st3" d="M65.8,26.2c1.8,0,3.3,1.4,3.5,3.3v-4.1c-0.3-1.9-1.8-3.3-3.5-3.3c-2,0-3.6,1.8-3.6,3.9c0,0.7,0.2,1.4,0.5,2
			C63.4,27,64.5,26.2,65.8,26.2z"/>
		<path class="st4" d="M50.2,31.2c-1.1-0.9-2.4-1.5-4-1.5h-3.5H40l11.3-16.6c0.3-0.4,0.5-0.9,0.7-1.4c0.6-1.6,0.5-3.3-0.3-4.8
			c-1-2-3.1-3.2-5.3-3.2H31c-3.3,0-6,2.7-6,6c0,0.7,0.1,1.4,0.4,2c0.8,2.3,3.1,4,5.7,4h3.9l-2.8,4.1l-8.6,12.5
			c-1.1,1.6-1.3,3.6-0.7,5.4c0.1,0.3,0.2,0.5,0.3,0.8c1,2,3.1,3.2,5.3,3.2h17.7c2.6,0,4.8-1.7,5.7-4c0-0.1,0-0.1,0.1-0.2
			c0.2-0.6,0.3-1.2,0.3-1.8C52.3,34,51.5,32.3,50.2,31.2z M46,38.9H28.3c-1.2,0-2.3-0.6-2.8-1.7c-0.5-1-0.5-2.3,0.2-3.3l14.4-21.1
			h-9.4c-1.7,0-3.2-1.4-3.2-3.2c0-0.4,0.1-0.7,0.2-1c0.4-1.2,1.6-2.1,3-2.1h15.4c1.2,0,2.3,0.6,2.8,1.7c0,0,0,0,0,0.1
			c0.5,1,0.4,2.2-0.2,3.2L34.3,32.6h6.5H46c1.2,0,2.3,0.7,2.8,1.8c0.2,0.4,0.3,0.9,0.3,1.4C49.2,37.5,47.8,38.9,46,38.9z"/>
		<path class="st3" d="M124.7,53.3c-4.4,0-8-1.4-10.5-4.1c-2.8-3-3.3-6.6-3.3-8.2v3.5c0,1.3,0.1,5.4,3.3,8.7
			c2.5,2.7,6.1,4.2,10.5,4.1c3.8-0.1,6-3.5,6-6c0-0.7,0.2-3.7,0-4.4C129.9,49.3,127.3,53.3,124.7,53.3z"/>
		<path class="st3" d="M102,42c-3.3,0-6-2.7-6-6V40c0,3.3,2.7,6,6,6c3.3,0,6-2.7,6-6V36C108.1,39.3,105.4,42,102,42z"/>
		<path class="st3" d="M96,23.6c0-0.9-0.6-1.6-1.4-1.6c-0.8,0-1.4,0.7-1.4,1.6v4.1c0-0.9,0.6-1.6,1.4-1.6c0.8,0,1.4,0.7,1.4,1.6
			c0,0.2,0,0.5,0,0.7v-4.1C96,24.1,96,23.9,96,23.6z"/>
		<path class="st3" d="M123,40.8v-0.1C123,40.7,123,40.7,123,40.8C123,40.8,123,40.8,123,40.8z"/>
		<path class="st3" d="M109.5,22.2c-0.8,0-1.4,0.7-1.4,1.6c0,0.2,0,0.5,0,0.7v4.1c0-0.2,0-0.5,0-0.7c0-0.9,0.6-1.6,1.4-1.6
			c0.8,0,1.4,0.7,1.4,1.6v-4.1C110.9,22.9,110.3,22.2,109.5,22.2z"/>
		<path class="st3" d="M87.1,42c-2.6,0-4.9-1.7-5.7-4c-0.1-0.2-0.1-0.4-0.2-0.6c0,0.2-0.1,0.4-0.2,0.6c-0.8,2.4-3.1,4-5.7,4
			c-1.9,0-3.7-0.9-4.8-2.3c-1.1,1.5-2.8,2.4-4.8,2.4c-8,0-14.7-8.1-15.7-16c-0.1,0.7,0,3.4,0,4.1c0,0.4,0,0.7,0,1.1
			c1.3,1.1,2.1,2.7,2.1,4.5c0,0.6-0.1,1.3-0.3,1.8c2.6,5.1,7.8,8.5,13.8,8.5c2,0,3.7-0.9,4.8-2.4c1.1,1.4,2.8,2.3,4.8,2.3
			c2.8,0,5.2-2,5.9-4.6c0.6,2.6,3,4.6,5.9,4.6c3.3,0,6-2.7,6-6V36C93.2,39.3,90.5,42,87.1,42z"/>
		<path class="st4" d="M124.7,41.2c-1,0-1.5-0.2-1.7-0.3c0-0.1,0-0.1,0-0.2c0,0,0,0,0,0c0,0,0-0.1,0-0.1c0,0,0,0,0,0l0-16.8
			c0-7.5-6-13.7-13.5-13.7c-2.6,0-5.2,0.8-7.3,2.2c-2.2-1.6-4.8-2.4-7.6-2.4c-7.1,0-13,5.6-13.4,12.7c-1.5-7.2-7.8-12.6-15.3-12.6
			c-8.6,0-15.7,7.2-15.7,16c0,0.7,0,1.4,0.1,2c1,7.9,7.6,14,15.5,14c2,0,3.7-0.9,4.8-2.4c1.1,1.4,2.8,2.3,4.8,2.3
			c2.6,0,4.9-1.7,5.7-4c0.1-0.2,0.1-0.4,0.2-0.6c0,0.2,0.1,0.4,0.2,0.6c0.8,2.4,3.1,4,5.7,4c3.3,0,6-2.7,6-6v-8.3v-4.1
			c0-0.9,0.6-1.6,1.4-1.6c0.8,0,1.4,0.7,1.4,1.6c0,0.2,0,0.5,0,0.7v4.1V36c0,3.3,2.7,6,6,6c3.3,0,6-2.7,6-6v-7.4v-4.1
			c0-0.2,0-0.5,0-0.7c0-0.9,0.6-1.6,1.4-1.6c0.8,0,1.4,0.7,1.4,1.6v4.1v12.6V41c0,1.6,0.5,5.2,3.3,8.2c2.5,2.7,6.1,4.1,10.5,4.1
			c2.6,0,4.8-1.7,5.7-4c0.2-0.6,0.4-1.3,0.4-2C130.7,43.9,128,41.2,124.7,41.2z M69.4,29.5v1.6c-1-0.7-2.2-1.2-3.5-1.2
			c-1.3,0-2.4-0.8-3.1-1.9c-0.3-0.6-0.5-1.3-0.5-2c0-2.2,1.6-3.9,3.6-3.9c1.8,0,3.3,1.4,3.5,3.3V29.5z M78.3,26.6V36
			c0,1.7-1.4,3.2-3.2,3.2c-1.7,0-3.2-1.4-3.2-3.2V25.4c0,0,0-0.1,0-0.1c-0.3-3.4-3.1-6.1-6.4-6.1c-3.6,0-6.5,3.1-6.5,6.8
			c0,2.7,1.5,5,3.7,6.1c0.8,0.4,1.8,0.7,2.8,0.7c1.2,0,2.3,0.7,2.8,1.8c0.2,0.4,0.3,0.9,0.3,1.4c0,1.7-1.4,3.2-3.2,3.2
			c-7,0-12.8-5.9-12.8-13.1c0-2.9,0.9-5.6,2.5-7.7c2.3-3.3,6.1-5.4,10.3-5.4c3.7,0,7,1.6,9.3,4.1c2.2,2.4,3.5,5.5,3.5,9
			C78.4,26.2,78.4,26.4,78.3,26.6z M124.4,50.4c-3.6,0-6.4-1.1-8.4-3.2c-2.5-2.7-2.5-6-2.5-6.7V23.8c0-2.5-1.9-4.5-4.3-4.5
			c-2.3,0-4.3,2-4.3,4.5c0,0.2,0,0.3,0,0.5V36c0,1.7-1.4,3.2-3.2,3.2c-1.7,0-3.2-1.4-3.2-3.2V24.1c0-0.2,0-0.3,0-0.5
			c0-2.5-1.9-4.5-4.3-4.5c-2.3,0-4.3,2-4.3,4.5V36c0,1.7-1.4,3.2-3.2,3.2c-1.7,0-3.2-1.4-3.2-3.2V23.4c0-0.1,0-0.2,0-0.3
			c0.1-2.1,0.8-4,1.9-5.6c1.9-2.8,5.1-4.6,8.7-4.6c3,0,5.6,1.2,7.6,3.2c1.9-1.9,4.5-3.1,7.4-3.1c3.1,0,5.9,1.4,7.9,3.6
			c1.7,1.9,2.7,4.4,2.7,7.2v16.8c0,0.1,0,0.1,0,0.2c0,0.2,0,1.4,0.8,2.2c0.6,0.6,1.4,0.9,2.3,1c0.5,0.1,1,0.1,1.5,0.1
			c1.2,0,2.3,0.7,2.8,1.8c0.2,0.4,0.3,0.9,0.3,1.4C127.6,49,126.2,50.4,124.4,50.4z"/>
	</g>
</g>
</svg>
