<?xml version="1.0" encoding="utf-8"?>
<!-- Generator: Adobe Illustrator 22.0.1, SVG Export Plug-In . SVG Version: 6.00 Build 0)  -->
<svg version="1.1" id="Capa_1" xmlns="http://www.w3.org/2000/svg" xmlns:xlink="http://www.w3.org/1999/xlink" x="0px" y="0px"
	 viewBox="0 0 97 95.5" style="enable-background:new 0 0 97 95.5;" xml:space="preserve">
<style type="text/css">
	.st0{fill:#AED2DA;}
	.st1{fill:#FFFFFF;}
	.st2{fill:#E8E8E9;}
	.st3{fill:#D7DADB;}
</style>
<circle class="st0" cx="48.8" cy="47.3" r="45"/>
<path class="st1" d="M77.6,20c-1.4,3.7-2.8,7.4-4.2,11.1c-5.7,14.8-11.4,29.7-17.2,44.5c-0.5,1.4-0.5,1.4-1.8,0.7
	c-4.7-2.3-9.3-4.7-14-7c-2.2-1.1-4.4-2.2-6.7-3.4c0-0.4,0.3-0.6,0.5-0.8c3.5-3.6,6.9-7.2,10.4-10.8c2.7-2.8,5.4-5.7,8.1-8.5
	c4.9-5.2,9.9-10.3,14.8-15.5c2.6-2.7,5.3-5.5,7.9-8.2c0.2-0.2,0.5-0.4,0.4-0.8c-0.4,0-0.6,0.2-0.8,0.3c-2.5,1.9-5.1,3.9-7.6,5.8
	c-8.1,6.3-16.3,12.5-24.4,18.8c-5.4,4.2-10.8,8.4-16.3,12.5c-0.4,0.3-0.8,0.8-1.5,0.8c-3.9-2.6-7.8-5.1-11.7-7.7
	c0.3-0.5,0.7-0.5,1-0.7c20.5-10.3,41-20.5,61.5-30.8C76.6,20.3,77,20,77.6,20L77.6,20z"/>
<path class="st2" d="M25.4,59.8c0.7,0,1-0.5,1.5-0.8c5.4-4.2,10.9-8.4,16.3-12.5c8.1-6.3,16.3-12.5,24.4-18.8
	c2.5-1.9,5.1-3.9,7.6-5.8c0.2-0.2,0.4-0.4,0.8-0.3c0.1,0.4-0.2,0.6-0.4,0.8c-2.6,2.7-5.3,5.5-7.9,8.2c-4.9,5.1-9.9,10.3-14.8,15.5
	c-2.7,2.8-5.4,5.7-8.1,8.5c-3.4,3.6-6.9,7.2-10.4,10.8c-0.2,0.2-0.5,0.5-0.5,0.8c-0.3,0.4-0.2,0.8-0.2,1.2c0,2.8,0,5.7,0,8.5
	c-0.4-0.4-0.6-1-0.8-1.5C30.2,69.5,27.8,64.6,25.4,59.8z"/>
<path class="st3" d="M33.5,75.8c0-2.8,0-5.7,0-8.5c0-0.4-0.1-0.9,0.2-1.2c2.2,1.1,4.4,2.2,6.7,3.4c-0.8,0.4-1.3,1.2-2,1.8
	c-1.4,1.3-2.7,2.7-4.1,4.1C34.1,75.4,34,75.8,33.5,75.8z"/>
</svg>
